<?xml version="1.0" encoding="UTF-8"?>
<svg width="59px" height="35px" viewBox="0 0 59 35" version="1.1" xmlns="http://www.w3.org/2000/svg" xmlns:xlink="http://www.w3.org/1999/xlink">
    <!-- Generator: Sketch 47.1 (45422) - http://www.bohemiancoding.com/sketch -->
    <title>wing</title>
    <desc>Created with Sketch.</desc>
    <defs>
        <linearGradient x1="75.7894791%" y1="14.0846379%" x2="33.9679464%" y2="73.8775595%" id="linearGradient-1">
            <stop stop-color="#577670" offset="0%"></stop>
            <stop stop-color="#D2DCDF" offset="100%"></stop>
        </linearGradient>
    </defs>
    <g id="Page-1" stroke="none" stroke-width="1" fill="none" fill-rule="evenodd">
        <g id="Artboard-2" transform="translate(-36.000000, -133.000000)">
            <g id="wing" transform="translate(67.233487, 150.694329) scale(-1, 1) rotate(109.000000) translate(-67.233487, -150.694329) translate(53.733487, 120.194329)">
                <path d="M17.5651764,60.2068257 C18.0171961,60.5360029 18.4500066,60.6746616 18.8558813,60.6030949 C19.1781315,60.5462735 19.4710123,60.3591149 19.7342633,60.0522101 C19.9925278,60.2074129 20.255667,60.287373 20.522698,60.287373 C23.9918572,60.287373 26.8041665,46.7915848 26.8041665,30.1436865 C26.8041665,13.4957881 23.9918572,0 20.522698,0 C18.3144822,0 16.3724008,5.46805366 15.252347,13.7365238 C13.0311632,7.29265166 10.6470142,3.32315781 8.81290753,3.6465603 C6.68674144,4.02146075 5.83907938,10.0701955 6.34475607,18.7507888 C4.67713616,15.6530472 3.25467949,13.9171656 2.40606212,14.1928981 C1.10579222,14.6153814 1.49152861,19.6504542 3.14595461,26.7122566 C2.55009757,26.3715886 2.04619245,26.2767722 1.6626002,26.4638627 C-0.344553829,27.4428171 1.70243823,35.7694622 6.23468492,45.061945 C10.424176,53.6516747 15.2707397,60.0599181 17.5651764,60.2068257 Z" id="Combined-Shape" fill="url(#linearGradient-1)" transform="translate(13.847894, 30.310733) scale(1, -1) rotate(180.000000) translate(-13.847894, -30.310733) "></path>
                <path d="M0.841989554,27.4304001 L12.8592789,29.5414691 L12.8592789,24.6035965 C4.84775268,21.9545656 0.841989554,20.9147767 0.841989554,21.4842298 C0.841989554,22.053683 0.841989554,24.0357397 0.841989554,27.4304001 Z" id="Path-37" fill="#000000" style="mix-blend-mode: multiply;" opacity="0.388530344"></path>
                <circle id="Oval-3" fill="#586564" opacity="0.512398098" cx="14.2659326" cy="35.6648316" r="1.78324158"></circle>
                <path d="M10.2536391,35.2190212 L1.33743118,33.4357796" id="Line" stroke="#7A9893" stroke-linecap="square"></path>
            </g>
        </g>
    </g>
</svg>